<svg width="136" height="23" viewBox="0 0 136 23" fill="none" xmlns="http://www.w3.org/2000/svg">
<path fill-rule="evenodd" clip-rule="evenodd" d="M0 0.31543H4.6966V22.7299H0V0.31543Z" fill="white"/>
<path fill-rule="evenodd" clip-rule="evenodd" d="M14.9704 0.31543H19.667V22.7299H14.9704V0.31543Z" fill="white"/>
<path fill-rule="evenodd" clip-rule="evenodd" d="M7.49133 0.31543H12.1879V15.7034H7.49133V0.31543Z" fill="white"/>
<path fill-rule="evenodd" clip-rule="evenodd" d="M22.6024 7.71667H27.299V22.7299H22.6024V7.71667Z" fill="white"/>
<path fill-rule="evenodd" clip-rule="evenodd" d="M30.2344 7.71667H34.931V22.7299H30.2344V7.71667Z" fill="white"/>
<path fill-rule="evenodd" clip-rule="evenodd" d="M30.2344 0.210083H42.3817V4.40566H30.2344V0.210083Z" fill="white"/>
<path fill-rule="evenodd" clip-rule="evenodd" d="M22.6024 0.210083H27.299V4.40566H22.6024V0.210083Z" fill="white"/>
<path d="M52.4811 0.234375H53.2071V22.7408H52.4811V0.234375Z" fill="white"/>
<path fill-rule="evenodd" clip-rule="evenodd" d="M63.2557 10.273V0.363525H76.0599V4.96803H67.8282V10.273H63.2557Z" fill="white"/>
<path fill-rule="evenodd" clip-rule="evenodd" d="M79.0817 10.2785V0.376709H91.8741V4.95994H83.6784V10.2772L79.0817 10.2785Z" fill="white"/>
<path fill-rule="evenodd" clip-rule="evenodd" d="M79.0868 12.9562L83.6787 12.9562V18.2678H91.8574V22.8412H79.0868V12.9562Z" fill="white"/>
<path fill-rule="evenodd" clip-rule="evenodd" d="M94.9535 22.8633V12.9494H99.5352V18.2712H107.733V22.8573L94.9535 22.8633Z" fill="white"/>
<path fill-rule="evenodd" clip-rule="evenodd" d="M63.2505 18.2691H71.4361V12.9299H76.0471V22.8567H63.2505V18.2691Z" fill="white"/>
<path fill-rule="evenodd" clip-rule="evenodd" d="M106.063 2.3256L105.285 2.43028C105.203 2.07135 104.874 1.85449 104.411 1.85449C104.037 1.85449 103.723 1.98909 103.723 2.23586C103.723 2.46767 103.947 2.5948 104.291 2.66957L104.725 2.75931C105.472 2.92382 106.108 3.1332 106.108 3.85107C106.108 4.62876 105.375 5.05499 104.508 5.05499C103.543 5.05499 102.922 4.50911 102.848 3.84359L103.655 3.72394C103.723 4.12027 104.007 4.42686 104.538 4.42686C104.994 4.42686 105.293 4.26235 105.293 3.96323C105.293 3.66412 104.971 3.55943 104.59 3.47718L104.104 3.37249C103.461 3.23789 102.937 2.97616 102.937 2.28821C102.937 1.63016 103.633 1.22636 104.47 1.22636C105.241 1.22636 105.921 1.60773 106.063 2.3256ZM108.389 5.05499C107.17 5.05499 106.557 4.21 106.557 3.14068C106.557 2.01153 107.282 1.22636 108.366 1.22636C109.533 1.22636 110.213 2.11622 110.146 3.38744H107.394C107.409 3.99315 107.813 4.38947 108.374 4.38947C108.897 4.38947 109.159 4.1427 109.286 3.81368L110.086 3.91837C109.914 4.46425 109.383 5.05499 108.389 5.05499ZM108.374 1.86197C107.888 1.86197 107.424 2.13865 107.394 2.77426H109.301C109.279 2.21343 108.875 1.86197 108.374 1.86197ZM111.642 1.30114V1.75728C111.851 1.42826 112.247 1.22636 112.771 1.22636C113.242 1.22636 113.593 1.38339 113.803 1.68251C113.96 1.91432 114.042 2.22838 114.042 2.69949V4.96526H113.212V2.90886C113.212 2.52002 113.174 2.25082 113.01 2.08631C112.905 1.98162 112.733 1.91432 112.509 1.91432C111.873 1.91432 111.642 2.3929 111.642 3.0659V4.96526H110.812V1.30114H111.642ZM117.856 2.3256L117.078 2.43028C116.996 2.07135 116.667 1.85449 116.203 1.85449C115.829 1.85449 115.515 1.98909 115.515 2.23586C115.515 2.46767 115.739 2.5948 116.083 2.66957L116.517 2.75931C117.265 2.92382 117.9 3.1332 117.9 3.85107C117.9 4.62876 117.168 5.05499 116.3 5.05499C115.336 5.05499 114.715 4.50911 114.64 3.84359L115.448 3.72394C115.515 4.12027 115.799 4.42686 116.33 4.42686C116.786 4.42686 117.085 4.26235 117.085 3.96323C117.085 3.66412 116.764 3.55943 116.382 3.47718L115.896 3.37249C115.253 3.23789 114.73 2.97616 114.73 2.28821C114.73 1.63016 115.425 1.22636 116.263 1.22636C117.033 1.22636 117.714 1.60773 117.856 2.3256ZM120.181 5.05499C118.962 5.05499 118.349 4.21 118.349 3.14068C118.349 2.01153 119.074 1.22636 120.159 1.22636C121.325 1.22636 122.006 2.11622 121.938 3.38744H119.187C119.202 3.99315 119.605 4.38947 120.166 4.38947C120.69 4.38947 120.951 4.1427 121.079 3.81368L121.879 3.91837C121.707 4.46425 121.176 5.05499 120.181 5.05499ZM120.166 1.86197C119.68 1.86197 119.217 2.13865 119.187 2.77426H121.093C121.071 2.21343 120.667 1.86197 120.166 1.86197ZM123.284 2.43776L122.514 2.41533C122.567 1.68998 123.157 1.2114 124.122 1.2114C125.184 1.2114 125.64 1.59277 125.64 2.61723C125.64 2.85652 125.625 3.4697 125.625 3.6716C125.625 4.1427 125.647 4.52407 125.7 4.96526H124.922L124.9 4.52407C124.668 4.86805 124.309 5.05499 123.711 5.05499C122.866 5.05499 122.387 4.48668 122.387 3.85854C122.387 3.49961 122.552 3.23041 122.791 3.0659C123.12 2.84156 123.569 2.75183 124.129 2.68453L124.817 2.60975V2.48263C124.817 1.98162 124.518 1.83206 124.077 1.83206C123.606 1.83206 123.322 2.04892 123.284 2.43776ZM124.847 3.43979V3.21545L124.152 3.29023C123.524 3.35753 123.247 3.52952 123.247 3.86602C123.247 4.18009 123.494 4.40442 123.89 4.40442C124.376 4.40442 124.847 4.12775 124.847 3.43979ZM126.492 4.96526V0H127.322V1.73485C127.554 1.40583 127.898 1.22636 128.392 1.22636C129.304 1.22636 129.962 1.94423 129.962 3.14815C129.962 4.32217 129.267 5.05499 128.332 5.05499C127.853 5.05499 127.509 4.85309 127.308 4.59137L127.293 4.96526H126.492ZM128.22 1.89188C127.674 1.89188 127.285 2.3256 127.285 3.14815C127.285 3.95576 127.666 4.38947 128.22 4.38947C128.796 4.38947 129.11 3.89593 129.11 3.14068C129.11 2.38542 128.803 1.89188 128.22 1.89188ZM131.473 0V4.96526H130.643V0H131.473ZM133.978 5.05499C132.759 5.05499 132.146 4.21 132.146 3.14068C132.146 2.01153 132.871 1.22636 133.955 1.22636C135.122 1.22636 135.802 2.11622 135.735 3.38744H132.983C132.998 3.99315 133.402 4.38947 133.963 4.38947C134.486 4.38947 134.748 4.1427 134.875 3.81368L135.675 3.91837C135.503 4.46425 134.972 5.05499 133.978 5.05499ZM133.963 1.86197C133.477 1.86197 133.013 2.13865 132.983 2.77426H134.89C134.868 2.21343 134.464 1.86197 133.963 1.86197Z" fill="white"/>
<path fill-rule="evenodd" clip-rule="evenodd" d="M104.68 7.93058C105.51 7.93058 106.168 8.41664 106.325 9.18685L105.525 9.29902C105.45 8.9027 105.151 8.59611 104.657 8.59611C104.119 8.59611 103.715 9.00739 103.715 9.83742C103.715 10.6749 104.126 11.0937 104.657 11.0937C105.076 11.0937 105.443 10.8843 105.547 10.3833L106.355 10.488C106.168 11.3031 105.465 11.7592 104.642 11.7592C103.513 11.7592 102.863 10.9591 102.863 9.8449C102.863 8.73071 103.528 7.93058 104.68 7.93058ZM106.983 8.00536H107.813V11.6695H106.983V8.00536ZM106.983 6.70422H107.813V7.54174H106.983V6.70422ZM108.852 8.00536V6.94351H109.682V8.00536H110.43V8.64097H109.682V10.5403C109.682 10.9217 109.772 11.0114 110.124 11.0114H110.423V11.6695H109.817C109.017 11.6695 108.852 11.4526 108.852 10.6899V8.64097H108.299V8.00536H108.852ZM111.298 12.9631H110.924V12.2677H111.238C111.597 12.2677 111.746 12.2228 111.918 11.7368L111.956 11.647L110.602 8.00536H111.507L112.352 10.6151L113.204 8.00536H114.049L112.733 11.662C112.382 12.6266 112.135 12.9631 111.298 12.9631ZM116.943 6.70422V11.6695H116.113V6.70422H116.943ZM118.544 9.14199L117.773 9.11955C117.826 8.39421 118.416 7.91563 119.381 7.91563C120.443 7.91563 120.899 8.297 120.899 9.32145C120.899 9.56074 120.884 10.1739 120.884 10.3758C120.884 10.8469 120.907 11.2283 120.959 11.6695H120.181L120.159 11.2283C119.927 11.5723 119.568 11.7592 118.97 11.7592C118.125 11.7592 117.646 11.1909 117.646 10.5628C117.646 10.2038 117.811 9.93463 118.05 9.77012C118.379 9.54579 118.828 9.45605 119.389 9.38875L120.077 9.31398V9.18685C120.077 8.68584 119.777 8.53628 119.336 8.53628C118.865 8.53628 118.581 8.75314 118.544 9.14199ZM120.106 10.144V9.91968L119.411 9.99446C118.783 10.0618 118.506 10.2337 118.506 10.5702C118.506 10.8843 118.753 11.1086 119.149 11.1086C119.635 11.1086 120.106 10.832 120.106 10.144ZM121.752 11.6695V6.70422H122.582V8.43907C122.813 8.11005 123.157 7.93058 123.651 7.93058C124.563 7.93058 125.221 8.64845 125.221 9.85238C125.221 11.0264 124.526 11.7592 123.591 11.7592C123.113 11.7592 122.769 11.5573 122.567 11.2956L122.552 11.6695H121.752ZM123.479 8.59611C122.933 8.59611 122.544 9.02982 122.544 9.85238C122.544 10.66 122.926 11.0937 123.479 11.0937C124.055 11.0937 124.369 10.6002 124.369 9.8449C124.369 9.08964 124.062 8.59611 123.479 8.59611ZM126.605 11.6695H125.662V10.7273H126.605V11.6695Z" fill="white"/>
</svg>
