<?xml version="1.0" encoding="utf-8"?>
<!-- Generator: Adobe Illustrator 24.3.1, SVG Export Plug-In . SVG Version: 6.00 Build 0)  -->
<svg version="1.1" id="Layer_1" xmlns="http://www.w3.org/2000/svg" xmlns:xlink="http://www.w3.org/1999/xlink" x="0px" y="0px"
	 viewBox="0 0 83.7 23" style="enable-background:new 0 0 83.7 23;" xml:space="preserve">
<style type="text/css">
	.st0{fill-rule:evenodd;clip-rule:evenodd;fill:#FFFFFF;}
</style>
<path class="st0" d="M11,10.3V0.4h12.8V5h-8.2v5.3H11z"/>
<path class="st0" d="M26.8,10.3V0.4h12.8V5h-8.2v5.3H26.8z"/>
<path class="st0" d="M26.8,13h4.6v5.3h8.2v4.6H26.8V13z"/>
<path class="st0" d="M42.7,22.9V13h4.6v5.3h8.2v4.6H42.7z"/>
<path class="st0" d="M11,18.3h8.2V13h4.6v9.9H11V18.3z"/>
<path class="st0" d="M53.8,2.3L53,2.4c-0.1-0.4-0.4-0.6-0.9-0.6c-0.4,0-0.7,0.1-0.7,0.4c0,0.2,0.2,0.4,0.6,0.4l0.4,0.1
	c0.7,0.2,1.4,0.4,1.4,1.1c0,0.8-0.7,1.2-1.6,1.2c-1,0-1.6-0.5-1.7-1.2l0.8-0.1c0.1,0.4,0.4,0.7,0.9,0.7S53,4.3,53,4
	s-0.3-0.4-0.7-0.5l-0.5-0.1c-0.6-0.1-1.2-0.4-1.2-1.1s0.7-1.1,1.5-1.1C53,1.2,53.7,1.6,53.8,2.3z M56.1,5.1c-1.2,0-1.8-0.8-1.8-1.9
	s0.7-1.9,1.8-1.9c1.2,0,1.8,0.9,1.8,2.2h-2.8c0,0.6,0.4,1,1,1c0.5,0,0.8-0.2,0.9-0.6L57.8,4C57.7,4.5,57.1,5.1,56.1,5.1z M56.1,1.9
	c-0.5,0-0.9,0.3-1,0.9H57C57,2.2,56.6,1.9,56.1,1.9z M59.4,1.3v0.5c0.2-0.3,0.6-0.5,1.1-0.5s0.8,0.2,1,0.5c0.2,0.2,0.2,0.5,0.2,1V5
	H61V2.9c0-0.4,0-0.7-0.2-0.8c-0.1-0.1-0.3-0.2-0.5-0.2c-0.6,0-0.9,0.5-0.9,1.2V5h-0.8V1.3H59.4z M65.6,2.3l-0.8,0.1
	c-0.1-0.4-0.4-0.6-0.9-0.6c-0.4,0-0.7,0.1-0.7,0.4c0,0.2,0.2,0.4,0.6,0.4l0.4,0.1c0.7,0.2,1.4,0.4,1.4,1.1C65.6,4.6,64.9,5,64,5
	c-1,0-1.6-0.5-1.7-1.2l0.8-0.1c0.1,0.4,0.4,0.7,0.9,0.7s0.8-0.2,0.8-0.5s-0.3-0.4-0.7-0.5l-0.5-0.1c-0.6-0.1-1.1-0.3-1.1-1
	s0.7-1.1,1.5-1.1C64.8,1.2,65.5,1.6,65.6,2.3z M67.9,5.1c-1.2,0-1.8-0.8-1.8-1.9s0.7-1.9,1.8-1.9c1.2,0,1.8,0.9,1.8,2.2h-2.8
	c0,0.6,0.4,1,1,1c0.5,0,0.8-0.2,0.9-0.6L69.6,4C69.5,4.5,68.9,5.1,67.9,5.1z M67.9,1.9c-0.5,0-0.9,0.3-1,0.9h1.9
	C68.8,2.2,68.4,1.9,67.9,1.9z M71,2.4h-0.8c0.1-0.7,0.6-1.2,1.6-1.2c1.1,0,1.5,0.4,1.5,1.4c0,0.2,0,0.9,0,1.1c0,0.5,0,0.9,0.1,1.3
	h-0.8V4.6c-0.2,0.3-0.6,0.5-1.2,0.5c-0.8,0-1.3-0.6-1.3-1.2c0-0.4,0.2-0.6,0.4-0.8c0.3-0.2,0.8-0.3,1.3-0.4l0.7-0.1V2.5
	c0-0.5-0.3-0.7-0.7-0.7C71.4,1.8,71.1,2,71,2.4z M72.6,3.4V3.2l-0.7,0.1C71.3,3.4,71,3.5,71,3.9c0,0.3,0.2,0.5,0.6,0.5
	C72.1,4.4,72.6,4.1,72.6,3.4z M74.2,5V0H75v1.7c0.2-0.3,0.6-0.5,1.1-0.5c0.9,0,1.6,0.7,1.6,1.9S77,5,76.1,5c-0.5,0-0.8-0.2-1-0.5
	L75,5H74.2z M76,1.9c-0.5,0-0.9,0.4-0.9,1.3C75,4,75.4,4.4,76,4.4s0.9-0.5,0.9-1.2C76.9,2.4,76.5,1.9,76,1.9z M79.2,0v5h-0.8V0H79.2
	z M81.7,5.1c-1.2,0-1.8-0.8-1.8-1.9s0.7-1.9,1.8-1.9c1.2,0,1.8,0.9,1.8,2.2h-2.8c0,0.6,0.4,1,1,1c0.5,0,0.8-0.2,0.9-0.6L83.4,4
	C83.2,4.5,82.7,5.1,81.7,5.1z M81.7,1.9c-0.5,0-0.9,0.3-1,0.9h1.9C82.6,2.2,82.2,1.9,81.7,1.9z"/>
<path class="st0" d="M52.4,7.9c0.8,0,1.5,0.5,1.6,1.3l-0.8,0.1c-0.1-0.4-0.4-0.7-0.9-0.7S51.4,9,51.4,9.8s0.4,1.3,0.9,1.3
	c0.4,0,0.8-0.2,0.9-0.7l0.8,0.1c-0.2,0.8-0.9,1.3-1.7,1.3c-1.1,0-1.8-0.8-1.8-1.9C50.6,8.7,51.3,7.9,52.4,7.9z M54.7,8h0.8v3.7h-0.8
	V8z M54.7,6.7h0.8v0.8h-0.8V6.7z M56.6,8V6.9h0.8V8h0.7v0.6h-0.7v1.9c0,0.4,0.1,0.5,0.4,0.5h0.3v0.7h-0.6c-0.8,0-1-0.2-1-1v-2H56V8
	H56.6z M59,13h-0.4v-0.7H59c0.4,0,0.5,0,0.7-0.5v-0.1L58.3,8h0.9l0.8,2.6L60.9,8h0.8l-1.3,3.7C60.1,12.6,59.9,13,59,13z M64.7,6.7v5
	h-0.8v-5H64.7z M66.3,9.1h-0.8c0.1-0.7,0.6-1.2,1.6-1.2c1.1,0,1.5,0.4,1.5,1.4c0,0.2,0,0.9,0,1.1c0,0.5,0,0.9,0.1,1.3h-0.8v-0.4
	c-0.2,0.3-0.6,0.5-1.2,0.5c-0.8,0-1.3-0.6-1.3-1.2c0-0.4,0.2-0.6,0.4-0.8c0.3-0.2,0.8-0.3,1.3-0.4l0.7-0.1V9.2
	c0-0.5-0.3-0.7-0.7-0.7C66.6,8.5,66.3,8.8,66.3,9.1z M67.9,10.1V9.9L67.2,10c-0.6,0.1-0.9,0.2-0.9,0.6c0,0.3,0.2,0.5,0.6,0.5
	C67.4,11.1,67.9,10.8,67.9,10.1z M69.5,11.7v-5h0.8v1.7c0.2-0.3,0.6-0.5,1.1-0.5c0.9,0,1.6,0.7,1.6,1.9s-0.7,1.9-1.6,1.9
	c-0.5,0-0.8-0.2-1-0.5v0.4h-0.9V11.7z M71.2,8.6c-0.5,0-0.9,0.4-0.9,1.3c0,0.8,0.4,1.2,0.9,1.2c0.6,0,0.9-0.5,0.9-1.2
	C72.1,9.1,71.8,8.6,71.2,8.6z M74.3,11.7h-0.9v-0.9h0.9V11.7z"/>
</svg>
