<?xml version="1.0" encoding="utf-8"?>
<!-- Generator: Adobe Illustrator 24.1.0, SVG Export Plug-In . SVG Version: 6.00 Build 0)  -->
<svg version="1.1" id="Layer_1" xmlns="http://www.w3.org/2000/svg" xmlns:xlink="http://www.w3.org/1999/xlink" x="0px" y="0px"
	 viewBox="0 0 272.6 54" style="enable-background:new 0 0 272.6 54;" xml:space="preserve">
<style type="text/css">
	.st0{fill:#FFFFFF;}
</style>
<g>
	<rect x="52" y="8" class="st0" width="20" height="8"/>
</g>
<g>
	<rect x="13" y="8" class="st0" width="8" height="26"/>
</g>
<g>
	<rect x="26" y="8" class="st0" width="8" height="38"/>
</g>
<g>
	<rect y="8" class="st0" width="8" height="38"/>
</g>
<g>
	<rect x="52" y="21" class="st0" width="8" height="25"/>
</g>
<g>
	<rect x="39" y="8" class="st0" width="8" height="8"/>
</g>
<g>
	<rect x="39" y="21" class="st0" width="8" height="25"/>
</g>
<rect x="88" y="0" class="st0" width="1" height="54"/>
<g>
	<path class="st0" d="M116.5,18.5c0,4.3-2.7,5.8-6.8,5.8c-1.9,0-4.1-0.3-5.4-1.1v-3.8c0.8,0.5,2.7,1.3,5,1.3c2.6,0,3.4-0.8,3.4-2
		c0-1.3-0.6-1.7-2.3-2c-4.4-0.6-6-1.9-6-5.2c0-3.1,1.9-5.2,6.5-5.2c2.3,0,4.1,0.4,4.9,0.9v3.6c-0.9-0.5-2.9-0.9-4.6-0.9
		c-1.9,0-3,0.6-3,1.7c0,1.2,0.7,1.6,2.5,1.9C114.4,14,116.5,14.8,116.5,18.5z"/>
	<path class="st0" d="M126.6,24l-0.5-0.8c-1.3,0.8-2.7,1.1-4,1.1c-3.1,0-4-1.7-4-3.9v-8h3.7v7.4c0,0.9,0.3,1.4,1.3,1.4
		c0.9,0,1.7-0.4,2-0.6v-8.2h3.7V24L126.6,24L126.6,24z"/>
	<path class="st0" d="M139.5,15.9c-1.1-0.4-2.4-0.7-3.7-0.7c-1,0-1.6,0.2-1.6,0.8c0,0.6,0.4,0.7,1.1,0.8c3.6,0.3,4.6,1.3,4.6,3.7
		c0,2.2-1.3,3.9-5.2,3.9c-2.1,0-3.3-0.4-4.2-0.7v-3.1c1.1,0.5,2.6,0.9,4.1,0.9c1.2,0,1.7-0.2,1.7-0.8c0-0.6-0.4-0.7-1.1-0.8
		c-3.6-0.3-4.6-1.3-4.6-3.7c0-2.3,1.5-3.9,5.1-3.9c2.1,0,3.1,0.3,3.8,0.6L139.5,15.9L139.5,15.9z"/>
	<path class="st0" d="M148.9,24.1c-0.5,0.1-1.4,0.2-1.9,0.2c-3.2,0-4.4-1.4-4.4-4.1v-4.7h-1.9v-2.4l1.9-0.5v-2.4l3.7-1v3.2h2.9v3.1
		h-2.9V20c0,0.9,0.3,1.4,1.5,1.4c0.5,0,0.9-0.1,1.1-0.1V24.1z"/>
	<path class="st0" d="M156.6,16c0-0.5-0.4-0.8-1.4-0.8c-1.4,0-3.1,0.4-4.1,0.9v-3.1c0.8-0.3,2.5-0.8,4.1-0.8c4.1,0,4.9,1.8,4.9,4.3
		V24h-2.2l-0.5-0.9c-0.8,0.7-2,1.2-3.4,1.2c-2.9,0-3.9-1.9-3.9-3.7c0-3.1,2.3-3.6,4.3-3.8l2.1-0.2L156.6,16L156.6,16z M155,18.9
		c-1,0.1-1.4,0.6-1.4,1.5c0,0.9,0.6,1.4,1.3,1.4c0.7,0,1.3-0.2,1.7-0.6v-2.6L155,18.9z"/>
	<path class="st0" d="M164.1,7c1.2,0,2.2,1,2.2,2.2c0,1.2-1,2.2-2.2,2.2c-1.2,0-2.2-0.9-2.2-2.2C161.9,8,162.8,7,164.1,7z
		 M166.8,24.1c0,0-0.5,0.1-1.1,0.1c-2,0-3.5-1-3.5-3.2v-8.4h3.7v7.9c0,0.4,0.2,0.7,0.9,0.7L166.8,24.1L166.8,24.1z"/>
	<path class="st0" d="M170.6,12.5l0.5,0.8c1.3-0.8,2.7-1.1,4-1.1c3.1,0,4,1.7,4,3.9v8h-3.7v-7.4c0-0.9-0.3-1.4-1.3-1.4
		c-0.9,0-1.7,0.4-2,0.6V24h-3.7V12.5H170.6z"/>
	<path class="st0" d="M187,16c0-0.5-0.4-0.8-1.4-0.8c-1.4,0-3.1,0.4-4.1,0.9v-3.1c0.8-0.3,2.5-0.8,4.1-0.8c4.1,0,4.9,1.8,4.9,4.3V24
		h-2.2l-0.5-0.9c-0.8,0.7-2,1.2-3.4,1.2c-2.9,0-3.9-1.9-3.9-3.7c0-3.1,2.3-3.6,4.3-3.8l2.1-0.2L187,16L187,16z M185.5,18.9
		c-1,0.1-1.4,0.6-1.4,1.5c0,0.9,0.6,1.4,1.3,1.4c0.7,0,1.3-0.2,1.7-0.6v-2.6L185.5,18.9z"/>
	<path class="st0" d="M192.5,24V6.8h3.7v6.2c0.7-0.4,1.6-0.7,2.9-0.7c3,0,4.5,1.8,4.5,6.1c0,4.2-1.5,6.1-4.5,6.1
		c-1.8,0-2.9-0.6-3.7-1.2l-0.6,0.9C194.7,24,192.5,24,192.5,24z M196.2,20.9c0,0,0.7,0.5,1.6,0.5c1.7,0,2.1-1.1,2.1-3.1
		c0-2-0.4-3.1-2.1-3.1c-0.9,0-1.6,0.5-1.6,0.5V20.9z"/>
	<path class="st0" d="M209.9,24.1c0,0-0.5,0.1-1.1,0.1c-2,0-3.5-1-3.5-3.2V6.8h3.7v13.7c0,0.4,0.2,0.7,0.9,0.7L209.9,24.1
		L209.9,24.1z"/>
	<path class="st0" d="M214.7,19.5c-0.1,1.5,0.7,1.9,2.5,1.9c1.7,0,3-0.3,3.8-0.8v2.9c-1.3,0.6-2.9,0.8-4.3,0.8
		c-3.8,0-5.6-1.9-5.6-6.1c0-4.1,1.8-6.1,5.4-6.1c4.9,0,5.3,3.7,5,7.3L214.7,19.5L214.7,19.5z M214.7,17.2h3.3
		c0.2-1.3-0.1-2.3-1.5-2.3C215.2,14.9,214.7,15.8,214.7,17.2z"/>
	<path class="st0" d="M104.4,41.6V29.8h3.7v11.6c0,2.2,1.4,2.6,2.7,2.6s2.7-0.4,2.7-2.6V29.8h3.7v11.8c0,4.7-3.8,5.8-6.4,5.8
		S104.4,46.3,104.4,41.6z"/>
	<path class="st0" d="M126.5,38.3c-0.2,0-0.6-0.1-1.1-0.1c-1.1,0-2.1,0.4-2.4,0.7V47h-3.7V35.5h2.2l0.5,0.8c0.6-0.6,1.8-1.2,3.5-1.2
		c0.5,0,0.9,0.1,1,0.2L126.5,38.3L126.5,38.3z"/>
	<path class="st0" d="M127.8,47V29.8h3.7v6.2c0.7-0.4,1.6-0.7,2.9-0.7c3,0,4.5,1.8,4.5,6.1s-1.5,6.1-4.5,6.1c-1.8,0-2.9-0.6-3.7-1.2
		L130,47C130,47,127.8,47,127.8,47z M131.4,43.9c0,0,0.7,0.5,1.6,0.5c1.7,0,2.1-1.1,2.1-3.1c0-2-0.4-3.1-2.1-3.1
		c-0.9,0-1.6,0.5-1.6,0.5V43.9z"/>
	<path class="st0" d="M146.3,39c0-0.5-0.4-0.8-1.4-0.8c-1.4,0-3.1,0.4-4.1,0.9v-3.1c0.8-0.3,2.5-0.8,4.1-0.8c4.1,0,4.9,1.8,4.9,4.3
		V47h-2.2l-0.5-0.9c-0.8,0.7-2,1.2-3.4,1.2c-2.9,0-3.9-1.9-3.9-3.7c0-3.1,2.3-3.6,4.3-3.8l2.1-0.2L146.3,39L146.3,39z M144.8,41.9
		c-1,0.1-1.4,0.6-1.4,1.5c0,0.9,0.6,1.4,1.3,1.4c0.7,0,1.3-0.2,1.7-0.6v-2.6L144.8,41.9z"/>
	<path class="st0" d="M154.1,35.5l0.5,0.8c1.3-0.8,2.7-1.2,4-1.2c3.1,0,4,1.7,4,3.9v8h-3.7v-7.4c0-0.9-0.3-1.4-1.3-1.4
		c-0.9,0-1.7,0.4-2,0.6V47h-3.7V35.5H154.1z"/>
	<path class="st0" d="M166.4,30c1.2,0,2.2,1,2.2,2.2c0,1.2-1,2.2-2.2,2.2c-1.2,0-2.2-0.9-2.2-2.2C164.3,31,165.2,30,166.4,30z
		 M169.2,47.1c0,0-0.5,0.1-1.1,0.1c-2,0-3.5-1-3.5-3.2v-8.4h3.7v7.9c0,0.4,0.2,0.7,0.9,0.7L169.2,47.1L169.2,47.1z"/>
	<path class="st0" d="M170.4,47v-2.7l5-5.7l-4.5,0v-3.2h9.1v2.7l-5,5.7l5.3,0V47H170.4z"/>
	<path class="st0" d="M187.6,39c0-0.5-0.4-0.8-1.4-0.8c-1.4,0-3.1,0.4-4.1,0.9v-3.1c0.8-0.3,2.5-0.8,4.1-0.8c4.1,0,4.9,1.8,4.9,4.3
		V47h-2.2l-0.5-0.9c-0.8,0.7-2,1.2-3.4,1.2c-2.9,0-3.9-1.9-3.9-3.7c0-3.1,2.3-3.6,4.3-3.8l2.1-0.2L187.6,39L187.6,39z M186,41.9
		c-1,0.1-1.4,0.6-1.4,1.5c0,0.9,0.6,1.4,1.3,1.4c0.7,0,1.3-0.2,1.7-0.6v-2.6L186,41.9z"/>
	<path class="st0" d="M200.4,47.1c-0.5,0.1-1.4,0.2-1.9,0.2c-3.2,0-4.4-1.4-4.4-4.1v-4.7h-1.9v-2.4l1.9-0.5v-2.4l3.7-1v3.2h2.9v3.1
		h-2.9V43c0,0.9,0.3,1.4,1.5,1.4c0.5,0,0.9-0.1,1.1-0.1V47.1z"/>
	<path class="st0" d="M204,30c1.2,0,2.2,1,2.2,2.2c0,1.2-1,2.2-2.2,2.2c-1.2,0-2.2-0.9-2.2-2.2C201.8,31,202.8,30,204,30z
		 M206.8,47.1c0,0-0.5,0.1-1.1,0.1c-2,0-3.5-1-3.5-3.2v-8.4h3.7v7.9c0,0.4,0.2,0.7,0.9,0.7L206.8,47.1L206.8,47.1z"/>
	<path class="st0" d="M207.9,41.3c0-3.6,1.1-6.1,5.4-6.1c4.3,0,5.4,2.5,5.4,6.1s-1.1,6.1-5.4,6.1C209.1,47.3,207.9,44.8,207.9,41.3z
		 M211.6,41.3c0,2.3,0.5,3.1,1.7,3.1c1.3,0,1.7-0.8,1.7-3.1s-0.5-3.1-1.7-3.1C212.1,38.1,211.6,39,211.6,41.3z"/>
	<path class="st0" d="M222.5,35.5l0.5,0.8c1.3-0.8,2.7-1.2,4-1.2c3.1,0,4,1.7,4,3.9v8h-3.7v-7.4c0-0.9-0.3-1.4-1.3-1.4
		c-0.9,0-1.7,0.4-2,0.6V47h-3.7V35.5H222.5z"/>
	<path class="st0" d="M241.3,43.6h7V47h-10.6V29.8h3.7L241.3,43.6L241.3,43.6z"/>
	<path class="st0" d="M255.5,39c0-0.5-0.4-0.8-1.4-0.8c-1.4,0-3.1,0.4-4.1,0.9v-3.1c0.8-0.3,2.5-0.8,4.1-0.8c4.1,0,4.9,1.8,4.9,4.3
		V47h-2.2l-0.5-0.9c-0.8,0.7-2,1.2-3.4,1.2c-2.9,0-3.9-1.9-3.9-3.7c0-3.1,2.3-3.6,4.3-3.8l2.1-0.2L255.5,39L255.5,39z M253.9,41.9
		c-1,0.1-1.4,0.6-1.4,1.5c0,0.9,0.6,1.4,1.3,1.4c0.7,0,1.3-0.2,1.7-0.6v-2.6L253.9,41.9z"/>
	<path class="st0" d="M261,47V29.8h3.7v6.2c0.7-0.4,1.6-0.7,2.9-0.7c3,0,4.5,1.8,4.5,6.1s-1.5,6.1-4.5,6.1c-1.8,0-2.9-0.6-3.7-1.2
		l-0.6,0.9C263.2,47,261,47,261,47z M264.7,43.9c0,0,0.7,0.5,1.6,0.5c1.7,0,2.1-1.1,2.1-3.1c0-2-0.4-3.1-2.1-3.1
		c-0.9,0-1.6,0.5-1.6,0.5V43.9z"/>
</g>
</svg>
